<?xml version="1.0" encoding="utf-8"?>
<svg id="master-artboard" viewBox="0 0 959.5118408203125 447.3945617675781" version="1.1" xmlns="http://www.w3.org/2000/svg" x="0px" y="0px" style="enable-background:new 0 0 1400 980;" width="959.5118408203125px" height="447.3945617675781px"><rect id="ee-background" x="0" y="0" width="959.5118408203125" height="447.3945617675781" style="fill: rgb(255, 255, 255); fill-opacity: 0; pointer-events: none;"/><defs><style id="ee-google-fonts">@import url(https://fonts.googleapis.com/css?family=Roboto:100,100italic,300,300italic,400,400italic,500,500italic,700,700italic,900,900italic);</style><radialGradient id="gradient-0" gradientUnits="objectBoundingBox" cx="0.5" cy="0.5" r="0.5">
                <stop offset="0" style="stop-color: #ffffff"/>
                <stop offset="1" style="stop-color: #cccccc"/>
              </radialGradient></defs>























































































































<g transform="matrix(1.9588532447814941, 0, 0, 1.9552395343780518, -353.1876771450043, -359.2247619628906)"><g id="surface1">
<path style=" stroke:none;fill-rule:evenodd;fill:rgb(100%,83.921814%,27.842712%);fill-opacity:1;" d="M 315.492188 211.101563 C 362.144531 211.101563 399.96875 248.925781 399.96875 295.578125 C 399.96875 342.234375 362.144531 380.054688 315.492188 380.054688 C 268.835938 380.054688 231.015625 342.234375 231.015625 295.578125 C 231.015625 248.925781 268.835938 211.101563 315.492188 211.101563 "/>
<path style=" stroke:none;fill-rule:nonzero;fill:rgb(65.882874%,51.373291%,17.64679%);fill-opacity:1;" d="M 311.679688 329.609375 L 311.679688 278.082031 C 302.085938 285.429688 300.359375 285.707031 297.035156 285.707031 C 295.449219 285.707031 294.039063 285.0625 292.816406 283.808594 C 291.582031 282.546875 290.980469 281.082031 290.980469 279.417969 C 290.980469 277.484375 291.632813 276.140625 292.777344 275.164063 C 308.066406 262.113281 300.878906 268.152344 316.84375 254.851563 C 317.558594 254.253906 318.699219 253.824219 320.480469 253.824219 C 322.472656 253.824219 324.097656 254.597656 325.296875 256.148438 C 326.515625 257.695313 327.113281 259.820313 327.113281 262.550781 L 327.113281 327.386719 C 327.113281 334.988281 324.523438 338.777344 319.339844 338.777344 C 317.035156 338.777344 315.179688 338.003906 313.785156 336.457031 C 312.375 334.910156 311.679688 332.625 311.679688 329.609375 "/>
<path style=" stroke:none;fill-rule:nonzero;fill:rgb(100%,100%,100%);fill-opacity:1;" d="M 307.761719 328.886719 L 307.761719 277.359375 C 298.167969 284.710938 296.445313 284.984375 293.117188 284.984375 C 291.53125 284.984375 290.125 284.339844 288.902344 283.089844 C 287.667969 281.828125 287.0625 280.363281 287.0625 278.699219 C 287.0625 276.765625 287.71875 275.417969 288.863281 274.441406 C 304.148438 261.390625 296.960938 267.429688 312.925781 254.128906 C 313.640625 253.535156 314.785156 253.105469 316.5625 253.105469 C 318.554688 253.105469 320.179688 253.878906 321.378906 255.425781 C 322.597656 256.972656 323.195313 259.101563 323.195313 261.828125 L 323.195313 326.664063 C 323.195313 334.265625 320.605469 338.054688 315.421875 338.054688 C 313.121094 338.054688 311.261719 337.28125 309.871094 335.734375 C 308.457031 334.1875 307.761719 331.90625 307.761719 328.886719 "/>
<path style=" stroke:none;fill-rule:evenodd;fill:rgb(0%,68.235779%,93.725586%);fill-opacity:1;" d="M 185.636719 278.300781 L 213.511719 256.378906 C 220.726563 251.371094 225.160156 253.554688 228.941406 260.722656 L 245.972656 290.753906 C 244.59375 295.570313 239.121094 296.113281 235.507813 291.558594 C 231.851563 286.957031 228.144531 282.964844 224.265625 278.949219 C 223.488281 282.4375 222.902344 286.003906 222.527344 289.644531 C 217.277344 340.417969 254.183594 385.832031 304.957031 391.078125 C 340.695313 394.773438 373.777344 377.582031 392.066406 349.371094 C 399.820313 338.042969 404.765625 325.464844 407.214844 311.382813 C 407.433594 310.144531 407.316406 309.566406 407.5 308.382813 C 407.691406 307.128906 407.8125 306.738281 407.878906 305.398438 L 408.296875 299.375 C 408.335938 298.410156 408.332031 297.632813 408.296875 296.542969 C 407.742188 279.351563 404.355469 264.066406 395.339844 249.03125 C 389.671875 239.585938 382.882813 230.800781 375.808594 224.734375 C 370.914063 220.539063 360.265625 212.519531 354.136719 210.175781 C 355.152344 209.800781 355.359375 210.070313 357.648438 211.277344 C 358.886719 211.933594 359.886719 212.488281 361.039063 213.097656 C 363.339844 214.320313 365.582031 215.792969 367.925781 217.363281 C 384.035156 228.144531 395.304688 242.757813 403.078125 260.160156 C 410.4375 276.628906 412.554688 296.738281 409.523438 314.390625 C 409.300781 315.695313 409.136719 316.683594 408.914063 317.988281 C 408.679688 319.363281 408.113281 320.429688 408.148438 321.777344 C 410.105469 320.132813 411.71875 303.214844 411.824219 301.285156 C 412.667969 285.988281 409.765625 271.542969 402.726563 257.484375 C 401.65625 255.351563 400.773438 253.933594 399.605469 251.726563 L 396.128906 245.902344 C 393.457031 241.65625 390.882813 237.917969 387.894531 234.242188 C 380.535156 225.191406 369.78125 217.320313 360.113281 212.144531 C 354.25 209.003906 349.039063 206.8125 342.863281 204.820313 L 330.132813 201.589844 C 325.667969 200.84375 319.273438 200.15625 314.726563 200.019531 L 309.308594 199.871094 C 310.941406 199.207031 312.210938 199.902344 313.757813 199.328125 C 312.367188 198.796875 312.703125 199.300781 313.230469 198.585938 L 311.714844 198.535156 C 304.011719 198.695313 296.183594 199.851563 288.71875 201.84375 C 287.339844 202.214844 286.3125 202.867188 285.128906 202.472656 C 286.773438 201.503906 292.394531 200.195313 294.304688 199.75 L 303.53125 198.007813 C 302.441406 197.644531 292.554688 199.335938 291.703125 199.683594 L 291.355469 199.1875 C 293.128906 197.992188 294.492188 198.394531 296.265625 197.199219 L 295.175781 197.214844 C 290.933594 197.695313 280.671875 201.101563 276.582031 202.792969 C 270.769531 205.199219 265.507813 207.855469 259.707031 211.632813 L 259.636719 210.984375 C 275.421875 200.957031 294.105469 195.230469 311.257813 194.847656 C 314.789063 194.769531 313.71875 194.476563 315.476563 194.382813 C 318.304688 194.226563 320.96875 194.578125 323.726563 194.507813 C 322.894531 193.332031 323.390625 194.039063 323.449219 193.589844 C 322.171875 193.097656 315.144531 192.984375 313.3125 193.019531 C 306.933594 193.140625 298.519531 193.699219 292.265625 195.144531 L 281.375 197.691406 C 284.0625 195.882813 298.097656 193.210938 302.449219 192.898438 C 308.828125 192.4375 316.1875 191.746094 322.765625 192.5 C 327.738281 193.066406 332.828125 193.390625 337.617188 194.777344 C 338.257813 194.960938 338.628906 194.988281 339.304688 195.105469 C 344.15625 195.933594 354.03125 199.550781 358.488281 201.300781 C 363.441406 203.242188 369.707031 206.5625 374.082031 209.398438 C 376.03125 210.660156 378.09375 211.960938 380.132813 213.484375 L 386.273438 218.300781 C 384.894531 216.351563 381.125 213.792969 379.25 212.273438 C 372.714844 206.972656 360.742188 200.8125 353.191406 197.90625 L 341.425781 194.140625 L 329.441406 191.671875 C 328.554688 191.554688 328.355469 191.652344 327.5 191.558594 C 315.546875 190.261719 312.808594 190.519531 300.957031 191.4375 C 293.894531 191.984375 282.054688 195.207031 275.25 197.859375 C 272.125 199.078125 260.082031 204.667969 257.203125 206.609375 L 257.183594 206.582031 C 276.871094 194.144531 300.722656 187.976563 325.683594 190.558594 C 384.824219 196.671875 427.808594 249.566406 421.695313 308.707031 C 415.582031 367.84375 362.683594 410.832031 303.546875 404.71875 C 244.40625 398.605469 201.421875 345.707031 207.535156 286.566406 C 207.882813 283.210938 208.378906 279.90625 209.023438 276.65625 C 202.554688 279.980469 194.816406 283.851563 193.277344 283.972656 C 189.558594 284.257813 185.289063 281.445313 185.636719 278.300781 Z M 224.148438 278.832031 L 223.964844 278.640625 L 223.835938 279.269531 C 223.957031 279.121094 224.058594 278.976563 224.148438 278.832031 "/>
<path style=" stroke:none;fill-rule:nonzero;fill:rgb(13.725281%,12.156677%,12.548828%);fill-opacity:1;" d="M 451.816406 230.464844 C 451.816406 232.953125 452.226563 235.28125 453.058594 237.433594 C 453.875 239.597656 455.097656 241.558594 456.71875 243.339844 C 458.503906 245.273438 460.53125 246.769531 462.789063 247.820313 C 465.050781 248.867188 467.390625 249.398438 469.8125 249.398438 C 474.890625 249.398438 479.152344 247.589844 482.597656 243.980469 C 486.039063 240.359375 487.753906 235.855469 487.753906 230.464844 C 487.753906 225.523438 486.027344 221.300781 482.554688 217.804688 C 479.085938 214.304688 474.917969 212.5625 470.046875 212.5625 C 464.96875 212.5625 460.667969 214.304688 457.128906 217.789063 C 453.585938 221.261719 451.816406 225.492188 451.816406 230.464844 Z M 439.894531 230.859375 C 439.894531 227.671875 440.316406 224.664063 441.171875 221.832031 C 442.015625 219 443.28125 216.347656 444.957031 213.882813 C 447.828125 209.703125 451.4375 206.476563 455.765625 204.203125 C 460.09375 201.929688 464.832031 200.800781 469.964844 200.800781 C 473.816406 200.800781 477.53125 201.550781 481.113281 203.03125 C 484.691406 204.515625 487.890625 206.667969 490.710938 209.457031 C 493.609375 212.34375 495.816406 215.613281 497.324219 219.21875 C 498.835938 222.839844 499.597656 226.636719 499.597656 230.625 C 499.597656 234.765625 498.890625 238.65625 497.460938 242.304688 C 496.046875 245.941406 493.949219 249.167969 491.1875 251.984375 C 488.394531 254.9375 485.140625 257.210938 481.425781 258.789063 C 477.722656 260.371094 473.84375 261.160156 469.800781 261.160156 C 465.472656 261.160156 461.484375 260.382813 457.835938 258.84375 C 454.199219 257.308594 450.972656 255.019531 448.140625 251.984375 C 445.433594 249.125 443.378906 245.898438 441.988281 242.320313 C 440.585938 238.753906 439.894531 234.929688 439.894531 230.859375 Z M 521.222656 260.015625 L 510.035156 260.015625 L 510.035156 201.945313 L 520.800781 201.945313 L 544.828125 239.039063 L 544.828125 201.945313 L 555.9375 201.945313 L 555.9375 260.015625 L 545.414063 260.015625 L 521.222656 221.804688 Z M 600.347656 260.015625 L 568.984375 260.015625 L 568.984375 201.945313 L 600.347656 201.945313 L 600.347656 212.152344 L 580.257813 212.152344 L 580.257813 225.386719 L 600.347656 225.386719 L 600.347656 235.429688 L 580.257813 235.429688 L 580.257813 249.804688 L 600.347656 249.804688 Z M 453.695313 326.359375 L 442.425781 326.359375 L 442.425781 268.285156 L 457.480469 268.285156 L 472.238281 310.527344 L 486.953125 268.285156 L 501.96875 268.285156 L 501.96875 326.359375 L 490.777344 326.359375 L 491.171875 284.199219 L 476.5 326.359375 L 467.9375 326.359375 L 453.21875 284.199219 Z M 515.015625 326.359375 L 515.015625 268.285156 L 526.371094 268.285156 L 526.371094 326.359375 Z M 550.582031 326.359375 L 539.390625 326.359375 L 539.390625 268.285156 L 550.160156 268.285156 L 574.1875 305.378906 L 574.1875 268.285156 L 585.292969 268.285156 L 585.292969 326.359375 L 574.769531 326.359375 L 550.582031 288.148438 Z M 617.359375 316.394531 C 623.664063 316.394531 628.304688 314.855469 631.285156 311.765625 C 634.265625 308.675781 635.75 303.855469 635.75 297.28125 C 635.75 291.238281 634.117188 286.554688 630.863281 283.191406 C 627.609375 279.84375 623.050781 278.167969 617.195313 278.167969 L 609.777344 278.167969 L 609.777344 316.394531 Z M 618.082031 326.359375 L 598.34375 326.359375 L 598.34375 268.285156 L 617.753906 268.285156 C 623.023438 268.285156 627.230469 268.816406 630.402344 269.878906 C 633.558594 270.941406 636.429688 272.722656 639.019531 275.226563 C 641.753906 277.882813 643.824219 281.09375 645.238281 284.878906 C 646.640625 288.648438 647.347656 292.898438 647.347656 297.609375 C 647.347656 302.863281 646.367188 307.570313 644.394531 311.738281 C 642.433594 315.902344 639.574219 319.320313 635.820313 322.015625 C 633.695313 323.582031 631.3125 324.695313 628.683594 325.363281 C 626.058594 326.03125 622.519531 326.359375 618.082031 326.359375 Z M 442.507813 392.699219 L 442.507813 334.628906 L 453.859375 334.628906 L 453.859375 392.699219 Z M 478.070313 392.699219 L 466.882813 392.699219 L 466.882813 334.628906 L 477.648438 334.628906 L 501.675781 371.722656 L 501.675781 334.628906 L 512.785156 334.628906 L 512.785156 392.699219 L 502.261719 392.699219 L 478.070313 354.488281 Z M 544.851563 382.734375 C 551.152344 382.734375 555.792969 381.195313 558.777344 378.105469 C 561.757813 375.015625 563.242188 370.199219 563.242188 363.621094 C 563.242188 357.578125 561.605469 352.894531 558.355469 349.53125 C 555.101563 346.183594 550.539063 344.511719 544.6875 344.511719 L 537.269531 344.511719 L 537.269531 382.734375 Z M 545.570313 392.699219 L 525.832031 392.699219 L 525.832031 334.628906 L 545.246094 334.628906 C 550.511719 334.628906 554.71875 335.15625 557.890625 336.21875 C 561.050781 337.28125 563.921875 339.066406 566.507813 341.570313 C 569.242188 344.222656 571.3125 347.4375 572.730469 351.222656 C 574.128906 354.992188 574.839844 359.238281 574.839844 363.949219 C 574.839844 369.203125 573.859375 373.914063 571.886719 378.078125 C 569.925781 382.246094 567.066406 385.660156 563.308594 388.355469 C 561.183594 389.921875 558.804688 391.039063 556.175781 391.707031 C 553.546875 392.371094 550.007813 392.699219 545.570313 392.699219 Z M 585.179688 392.699219 L 585.179688 334.628906 L 596.53125 334.628906 L 596.53125 392.699219 Z M 635.773438 369.75 L 628.910156 351.058594 L 621.886719 369.75 Z M 617.980469 380.53125 L 613.472656 392.699219 L 601.710938 392.699219 L 624.242188 334.628906 L 634.058594 334.628906 L 656.273438 392.699219 L 644.101563 392.699219 L 639.515625 380.53125 Z M 617.980469 380.53125 "/>
</g></g></svg>